<?xml version="1.0" encoding="utf-8"?>
<!-- Uploaded to: SVG Repo, www.svgrepo.com, Generator: SVG Repo Mixer Tools -->
<svg version="1.1" id="Uploaded to svgrepo.com" xmlns="http://www.w3.org/2000/svg"
	xmlns:xlink="http://www.w3.org/1999/xlink" width="800px" height="800px" viewBox="0 0 32 32" xml:space="preserve">
	<path class="linesandangles_een" d="M22,16h-5v-5c0-1.206-0.799-3-3-3s-3,1.794-3,3v5.167C9.994,16.5,9,17.361,9,19v5
	c0,1.639,0.994,2.5,2,2.833V30h12v-3.167c1.006-0.333,2-1.195,2-2.833v-5C25,17.794,24.201,16,22,16z M23,24c0,0.805-0.55,0.988-1,1
	h-1v3h-8l-0.014-2.975L12.012,25C11.55,24.988,11,24.805,11,24v-5c0-0.805,0.55-0.988,1-1h1v-6.988C13.012,10.55,13.194,10,14,10
	s0.988,0.55,1,1v9h2v-2h5c0.806,0,0.988,0.55,1,1V24z M9,11H5V9h4V11z M19,9h4v2h-4V9z M15,6h-2V2h2V6z M9.759,8.171l-2.83-2.828
	l1.413-1.415l2.83,2.828L9.759,8.171z M18.241,8.171l-1.413-1.415l2.83-2.828l1.413,1.415L18.241,8.171z" />
</svg>
